<svg width="26" height="26" viewBox="0 0 26 26" fill="none" xmlns="http://www.w3.org/2000/svg">
<path d="M7.58332 11.9167C7.58332 11.3183 8.06835 10.8333 8.66666 10.8333C9.26496 10.8333 9.74999 11.3183 9.74999 11.9167C9.74999 12.515 9.26496 13 8.66666 13C8.06835 13 7.58332 12.515 7.58332 11.9167Z" fill="white"/>
<path d="M7.58332 17.3333C7.58332 16.735 8.06835 16.25 8.66666 16.25C9.26496 16.25 9.74999 16.735 9.74999 17.3333C9.74999 17.9316 9.26496 18.4167 8.66666 18.4167C8.06835 18.4167 7.58332 17.9316 7.58332 17.3333Z" fill="white"/>
<path d="M11.9167 11.9167C11.9167 11.3183 12.4017 10.8333 13 10.8333C13.5983 10.8333 14.0833 11.3183 14.0833 11.9167C14.0833 12.515 13.5983 13 13 13C12.4017 13 11.9167 12.515 11.9167 11.9167Z" fill="white"/>
<path d="M11.9167 17.3333C11.9167 16.735 12.4017 16.25 13 16.25C13.5983 16.25 14.0833 16.735 14.0833 17.3333C14.0833 17.9316 13.5983 18.4167 13 18.4167C12.4017 18.4167 11.9167 17.9316 11.9167 17.3333Z" fill="white"/>
<path d="M16.25 11.9167C16.25 11.3183 16.735 10.8333 17.3333 10.8333C17.9316 10.8333 18.4167 11.3183 18.4167 11.9167C18.4167 12.515 17.9316 13 17.3333 13C16.735 13 16.25 12.515 16.25 11.9167Z" fill="white"/>
<path d="M16.25 17.3333C16.25 16.735 16.735 16.25 17.3333 16.25C17.9316 16.25 18.4167 16.735 18.4167 17.3333C18.4167 17.9316 17.9316 18.4167 17.3333 18.4167C16.735 18.4167 16.25 17.9316 16.25 17.3333Z" fill="white"/>
<path fill-rule="evenodd" clip-rule="evenodd" d="M8.66666 2.16666C9.26496 2.16666 9.74999 2.65168 9.74999 3.24999V4.33332H16.25V3.24999C16.25 2.65168 16.735 2.16666 17.3333 2.16666C17.9316 2.16666 18.4167 2.65168 18.4167 3.24999V4.33332C21.4082 4.33332 23.8333 6.75845 23.8333 9.74999V18.4167C23.8333 21.4082 21.4082 23.8333 18.4167 23.8333H7.58332C4.59178 23.8333 2.16666 21.4082 2.16666 18.4167V9.74999C2.16666 6.75845 4.59178 4.33332 7.58332 4.33332V3.24999C7.58332 2.65168 8.06835 2.16666 8.66666 2.16666ZM7.58332 6.49999C5.7884 6.49999 4.33332 7.95506 4.33332 9.74999V18.4167C4.33332 20.2116 5.7884 21.6667 7.58332 21.6667H18.4167C20.2116 21.6667 21.6667 20.2116 21.6667 18.4167V9.74999C21.6667 7.95506 20.2116 6.49999 18.4167 6.49999C18.4167 7.0983 17.9316 7.58332 17.3333 7.58332C16.735 7.58332 16.25 7.0983 16.25 6.49999H9.74999C9.74999 7.0983 9.26496 7.58332 8.66666 7.58332C8.06835 7.58332 7.58332 7.0983 7.58332 6.49999Z" fill="white"/>
</svg>
