<svg width="26" height="26" viewBox="0 0 26 26" fill="none" xmlns="http://www.w3.org/2000/svg">
<path fill-rule="evenodd" clip-rule="evenodd" d="M23.8333 11.6568V19.0631C23.8333 21.0575 22.2166 22.6742 20.2222 22.6742H18.8981C18.2998 22.6742 17.8148 22.1892 17.8148 21.5909V21.3501C17.8148 20.7518 18.2998 20.2668 18.8981 20.2668H20.2222C20.887 20.2668 21.4259 19.7279 21.4259 19.0631V11.6568C21.4259 11.2819 21.2512 10.9284 20.9534 10.7007L13.7312 5.1778C13.2996 4.84775 12.7004 4.84775 12.2688 5.1778L5.04658 10.7007C4.74876 10.9284 4.57406 11.2819 4.57406 11.6568V19.0631C4.57406 19.7279 5.11298 20.2668 5.77777 20.2668H7.10184C7.70015 20.2668 8.18518 20.7518 8.18518 21.3501V21.5909C8.18518 22.1892 7.70015 22.6742 7.10184 22.6742H5.77777C3.78341 22.6742 2.16666 21.0575 2.16666 19.0631V11.6568C2.16666 10.5321 2.69074 9.47156 3.5842 8.78833L10.8064 3.26545C12.1012 2.27532 13.8988 2.27533 15.1936 3.26546L22.4158 8.78833C23.3092 9.47156 23.8333 10.5321 23.8333 11.6568ZM12.8796 12.0816H13.1204C14.9153 12.0816 16.3704 13.5367 16.3704 15.3316V19.1835C16.3704 20.9784 14.9153 22.4335 13.1204 22.4335H12.8796C11.0847 22.4335 9.62963 20.9784 9.62963 19.1835V15.3316C9.62963 13.5367 11.0847 12.0816 12.8796 12.0816ZM14.2037 15.3316C14.2037 14.7333 13.7187 14.2483 13.1204 14.2483H12.8796C12.2813 14.2483 11.7963 14.7333 11.7963 15.3316V19.1835C11.7963 19.7818 12.2813 20.2668 12.8796 20.2668H13.1204C13.7187 20.2668 14.2037 19.7818 14.2037 19.1835V15.3316Z" fill="white"/>
</svg>
