<svg width="26" height="26" viewBox="0 0 26 26" fill="none" xmlns="http://www.w3.org/2000/svg">
<path d="M16.25 7.58334C16.8483 7.58334 17.3333 7.09832 17.3333 6.50001C17.3333 5.9017 16.8483 5.41668 16.25 5.41668L9.74999 5.41668C9.15168 5.41668 8.66666 5.9017 8.66666 6.50001C8.66666 7.09832 9.15168 7.58334 9.74999 7.58334L16.25 7.58334Z" fill="white"/>
<path fill-rule="evenodd" clip-rule="evenodd" d="M18.4167 23.8333C20.2116 23.8333 21.6667 22.3783 21.6667 20.5833L21.6667 5.41668C21.6667 3.62175 20.2116 2.16668 18.4167 2.16668L7.58332 2.16668C5.7884 2.16668 4.33332 3.62175 4.33332 5.41668L4.33332 20.5833C4.33332 22.3783 5.7884 23.8333 7.58332 23.8333L18.4167 23.8333ZM19.5 20.5833C19.5 21.1817 19.015 21.6667 18.4167 21.6667L7.58332 21.6667C6.98501 21.6667 6.49999 21.1817 6.49999 20.5833L6.49999 5.41668C6.49999 4.81837 6.98501 4.33334 7.58332 4.33334L18.4167 4.33334C19.015 4.33334 19.5 4.81837 19.5 5.41668L19.5 20.5833Z" fill="white"/>
</svg>
